<?xml version="1.0" encoding="UTF-8" standalone="no"?>
<!-- Created with Inkscape (http://www.inkscape.org/) -->

<svg
   width="2048"
   height="1152"
   viewBox="0 0 541.86667 304.8"
   version="1.1"
   id="svg5"
   inkscape:version="1.1.2 (0a00cf5, 2022-02-04)"
   sodipodi:docname="minecraft-youtube.svg"
   inkscape:export-filename="/home/michael/Documents/bubblefish-branding/minecraft-youtube.png"
   inkscape:export-xdpi="96"
   inkscape:export-ydpi="96"
   xmlns:inkscape="http://www.inkscape.org/namespaces/inkscape"
   xmlns:sodipodi="http://sodipodi.sourceforge.net/DTD/sodipodi-0.dtd"
   xmlns="http://www.w3.org/2000/svg"
   xmlns:svg="http://www.w3.org/2000/svg">
  <sodipodi:namedview
     id="namedview7"
     pagecolor="#505050"
     bordercolor="#ffffff"
     borderopacity="1"
     inkscape:pageshadow="0"
     inkscape:pageopacity="0"
     inkscape:pagecheckerboard="1"
     inkscape:document-units="mm"
     showgrid="false"
     inkscape:snap-bbox="true"
     inkscape:bbox-paths="true"
     inkscape:bbox-nodes="true"
     inkscape:snap-bbox-edge-midpoints="true"
     inkscape:snap-bbox-midpoints="true"
     inkscape:object-paths="true"
     inkscape:snap-intersection-paths="true"
     inkscape:snap-smooth-nodes="true"
     inkscape:snap-midpoints="true"
     inkscape:snap-object-midpoints="true"
     inkscape:snap-center="true"
     inkscape:snap-text-baseline="true"
     inkscape:snap-page="true"
     inkscape:snap-global="true"
     inkscape:zoom="0.19555664"
     inkscape:cx="1186.3571"
     inkscape:cy="764.4844"
     inkscape:window-width="1366"
     inkscape:window-height="706"
     inkscape:window-x="0"
     inkscape:window-y="32"
     inkscape:window-maximized="1"
     inkscape:current-layer="layer1"
     units="px"
     width="2048px" />
  <defs
     id="defs2">
    <inkscape:path-effect
       effect="bspline"
       id="path-effect2406"
       is_visible="true"
       lpeversion="1"
       weight="50"
       steps="8"
       helper_size="24"
       apply_no_weight="true"
       apply_with_weight="true"
       only_selected="false" />
    <inkscape:path-effect
       effect="bspline"
       id="path-effect1120"
       is_visible="true"
       lpeversion="1"
       weight="33.333333"
       steps="2"
       helper_size="0"
       apply_no_weight="true"
       apply_with_weight="true"
       only_selected="true" />
    <inkscape:path-effect
       effect="bspline"
       id="path-effect832"
       is_visible="true"
       lpeversion="1"
       weight="33.333333"
       steps="2"
       helper_size="0"
       apply_no_weight="true"
       apply_with_weight="true"
       only_selected="true" />
    <inkscape:path-effect
       effect="bspline"
       id="path-effect5622"
       is_visible="true"
       lpeversion="1"
       weight="20"
       steps="2"
       helper_size="0"
       apply_no_weight="true"
       apply_with_weight="true"
       only_selected="true" />
    <inkscape:path-effect
       effect="bspline"
       id="path-effect5048"
       is_visible="true"
       lpeversion="1"
       weight="33.333333"
       steps="2"
       helper_size="0"
       apply_no_weight="true"
       apply_with_weight="true"
       only_selected="false" />
    <inkscape:path-effect
       effect="bspline"
       id="path-effect4976"
       is_visible="true"
       lpeversion="1"
       weight="33.333333"
       steps="2"
       helper_size="0"
       apply_no_weight="true"
       apply_with_weight="true"
       only_selected="true" />
  </defs>
  <g
     inkscape:label="Layer 1"
     inkscape:groupmode="layer"
     id="layer1"
     transform="translate(294.66469,193.7837)">
    <rect
       style="font-variation-settings:'wght' 900;fill:#ea303d;fill-opacity:1;stroke-width:24;stroke-linecap:round;stroke-linejoin:round"
       id="rect2338"
       width="541.86664"
       height="304.79999"
       x="-294.6647"
       y="-193.78371" />
    <rect
       style="fill:#ea303d;fill-opacity:1;stroke:none;stroke-width:24.0001;stroke-linecap:round;stroke-linejoin:round;stroke-miterlimit:4;stroke-dasharray:none;stroke-opacity:1;paint-order:normal"
       id="rect16207"
       width="541.8667"
       height="88.623062"
       x="-294.66473"
       y="-85.695244" />
    <path
       id="path14275"
       style="fill:#f6f6f6;fill-opacity:0.990135;stroke-width:20.8833;stroke-linecap:round;stroke-linejoin:round;paint-order:stroke fill markers"
       d="m -161.07162,-58.902918 c -10.17979,2e-5 -18.43212,8.25235 -18.43214,18.43212 -0.84261,6.14415 -3.65637,11.96575 -7.68955,14.97639 -0.24517,0.18394 -0.50959,0.39331 -0.67134,0.67161 -0.16288,0.28217 -0.24871,0.60223 -0.24873,0.92805 2e-5,0.32582 0.0858,0.64589 0.24873,0.92803 0.16288,0.28213 0.39718,0.51642 0.67932,0.67933 0.28215,0.16288 0.60223,0.2487 0.92803,0.24872 h 25.18568 c 10.17978,-2e-5 18.43207,-8.25237 18.43213,-18.43213 -6e-5,-10.17977 -8.25235,-18.4321 -18.43213,-18.43212 z m 7.80236,9.36405 a 3.7122961,3.7122961 0 0 1 3.71216,3.71218 3.7122961,3.7122961 0 0 1 -3.71216,3.71244 3.7122961,3.7122961 0 0 1 -3.71245,-3.71244 3.7122961,3.7122961 0 0 1 3.71245,-3.71218 z" />
    <path
       id="path14277"
       style="fill:#ffffff;fill-opacity:0.990135;stroke:none;stroke-width:115.717;stroke-linecap:round;stroke-linejoin:round;stroke-miterlimit:4;stroke-dasharray:none;stroke-opacity:1;paint-order:normal"
       d="m -166.18791,-74.550958 c -0.91174,0.0394 -1.91833,0.23221 -2.91421,0.47014 -1.99175,0.47583 -3.94031,1.1323 -4.69995,2.35886 -0.75964,1.22656 -0.3304,3.023 -1.53567,4.9593 -1.20526,1.9363 -4.04509,4.01274 -6.24679,4.57066 -2.20169,0.55793 -3.76539,-0.40258 -5.61921,0.86195 -1.85384,1.26454 -3.99756,4.75425 -4.28744,6.97944 -0.28988,2.2252 1.27385,3.18569 1.7714,5.40182 0.49757,2.21614 -0.0708,5.68792 -1.25322,7.63831 -1.18238,1.9504 -2.97879,2.37949 -3.72945,3.61158 -0.75065,1.23207 -0.45538,3.26694 0.008,5.22793 0.46279,1.96099 1.09292,3.84815 1.47462,4.65748 0.24176,0.51261 0.38803,0.56695 0.56622,0.42527 0.0278,-0.0507 0.0526,-0.10259 0.0815,-0.15273 a 5.4371382,5.4371382 0 0 1 0.008,-0.0134 c 0.85977,-1.47921 1.7799,-2.04165 2.10905,-2.28854 a 5.4371382,5.4371382 0 0 1 0.01,-0.008 c 2.26589,-1.69142 4.76769,-6.18531 5.51092,-11.05874 0.23673,-12.91785 10.89192,-23.42989 23.86316,-23.42991 13.11792,2e-5 23.86868,10.7508 23.86874,23.86871 -6e-5,13.1179 -10.75082,23.8687 -23.86874,23.86872 h -19.1624 c -3.34255,0.37656 -3.44612,1.38073 -1.97529,2.71618 1.54291,1.40085 5.03283,3.54482 7.25792,3.83481 2.22507,0.2900001 3.18563,-1.27402 5.40182,-1.77167 2.21617,-0.49764 5.68768,0.071 7.63804,1.25349 1.95035,1.1825201 2.37953,2.9789401 3.61157,3.7294301 1.23203,0.7505 3.26679,0.45519 5.25848,-0.0207 1.99167,-0.47589 3.94048,-1.13249 4.70019,-2.35888 0.75972,-1.2263701 0.33048,-3.0225001 1.5357,-4.9590301 1.20524,-1.93651 4.04472,-4.01303 6.24649,-4.57092 2.20179,-0.5579 3.76559,0.40263 5.61926,-0.86194 1.85365,-1.2646 3.99735,-4.75431 4.2874,-6.97945 0.29009,-2.22515 -1.27348,-3.18574 -1.77112,-5.40182 -0.49766,-2.21609 0.0706,-5.68761 1.25322,-7.63805 1.1825,-1.95044 2.97889,-2.37958 3.72943,-3.61156 0.75054,-1.232 0.45538,-3.26702 -0.0205,-5.25875 -0.47581,-1.99173 -1.13241,-3.9402 -2.35886,-4.69995 -1.22644,-0.75973 -3.02265,-0.3308 -4.95905,-1.53594 -1.93637,-1.20512 -4.01295,-4.04472 -4.57092,-6.2465 -0.55798,-2.20179 0.40278,-3.76552 -0.86169,-5.61923 -1.26446,-1.85373 -4.75412,-3.99749 -6.97943,-4.28742 -2.22528,-0.28996 -3.18604,1.27407 -5.40209,1.77165 -2.21603,0.49761 -5.68762,-0.071 -7.63803,-1.25349 -1.95044,-1.18242 -2.37975,-2.97875 -3.61185,-3.72943 -0.61604,-0.37533 -1.43277,-0.48939 -2.34452,-0.44994 z" />
    <text
       xml:space="preserve"
       style="font-style:normal;font-variant:normal;font-weight:bold;font-stretch:normal;font-size:10.8036px;line-height:1.25;font-family:Ubuntu;-inkscape-font-specification:'Ubuntu, Bold';font-variant-ligatures:normal;font-variant-caps:normal;font-variant-numeric:normal;font-variant-east-asian:normal;letter-spacing:0px;word-spacing:0px;fill:#ffffff;fill-opacity:1;stroke:none;stroke-width:0.264582"
       x="66.420235"
       y="-15.981516"
       id="text3235"><tspan
         sodipodi:role="line"
         id="tspan3233"
         style="font-style:normal;font-variant:normal;font-weight:bold;font-stretch:normal;font-size:10.8036px;font-family:Ubuntu;-inkscape-font-specification:'Ubuntu, Bold';font-variant-ligatures:normal;font-variant-caps:normal;font-variant-numeric:normal;font-variant-east-asian:normal;fill:#ffffff;fill-opacity:1;stroke-width:0.264582"
         x="66.420235"
         y="-15.981516">@Youtube</tspan></text>
    <text
       xml:space="preserve"
       style="font-style:normal;font-variant:normal;font-weight:normal;font-stretch:normal;font-size:43.2143px;line-height:1.25;font-family:'Red Hat Display';-inkscape-font-specification:'Red Hat Display, @wght=900';font-variant-ligatures:normal;font-variant-caps:normal;font-variant-numeric:normal;font-variant-east-asian:normal;font-variation-settings:'wght' 900;letter-spacing:0px;word-spacing:0px;fill:#ffffff;fill-opacity:1;stroke:none;stroke-width:0.264584"
       x="-116.71114"
       y="-28.848518"
       id="text1341"><tspan
         sodipodi:role="line"
         id="tspan1339"
         style="font-style:normal;font-variant:normal;font-weight:normal;font-stretch:normal;font-size:43.2143px;font-family:'Red Hat Display';-inkscape-font-specification:'Red Hat Display, @wght=900';font-variant-ligatures:normal;font-variant-caps:normal;font-variant-numeric:normal;font-variant-east-asian:normal;font-variation-settings:'wght' 900;fill:#ffffff;fill-opacity:1;stroke-width:0.264584"
         x="-116.71114"
         y="-28.848518">BubbleFish</tspan></text>
  </g>
</svg>
