<?xml version="1.0" encoding="UTF-8" standalone="no"?>
<!-- Created with Inkscape (http://www.inkscape.org/) -->

<svg
   width="1070"
   height="175"
   viewBox="0 0 283.10417 46.302084"
   version="1.1"
   id="svg5"
   inkscape:version="1.1.2 (0a00cf5, 2022-02-04)"
   sodipodi:docname="minecraft-planetminecraft.svg"
   inkscape:export-filename="/home/michael/Documents/bubblefish-branding/minecraft-planetminecraft.png"
   inkscape:export-xdpi="96"
   inkscape:export-ydpi="96"
   xmlns:inkscape="http://www.inkscape.org/namespaces/inkscape"
   xmlns:sodipodi="http://sodipodi.sourceforge.net/DTD/sodipodi-0.dtd"
   xmlns="http://www.w3.org/2000/svg"
   xmlns:svg="http://www.w3.org/2000/svg">
  <sodipodi:namedview
     id="namedview7"
     pagecolor="#505050"
     bordercolor="#ffffff"
     borderopacity="1"
     inkscape:pageshadow="0"
     inkscape:pageopacity="0"
     inkscape:pagecheckerboard="1"
     inkscape:document-units="mm"
     showgrid="false"
     inkscape:snap-bbox="true"
     inkscape:bbox-paths="true"
     inkscape:bbox-nodes="true"
     inkscape:snap-bbox-edge-midpoints="true"
     inkscape:snap-bbox-midpoints="true"
     inkscape:object-paths="true"
     inkscape:snap-intersection-paths="true"
     inkscape:snap-smooth-nodes="true"
     inkscape:snap-midpoints="true"
     inkscape:snap-object-midpoints="true"
     inkscape:snap-center="true"
     inkscape:snap-text-baseline="true"
     inkscape:snap-page="true"
     inkscape:snap-global="true"
     inkscape:zoom="0.78222655"
     inkscape:cx="515.83521"
     inkscape:cy="67.116106"
     inkscape:window-width="1366"
     inkscape:window-height="706"
     inkscape:window-x="0"
     inkscape:window-y="32"
     inkscape:window-maximized="1"
     inkscape:current-layer="layer1"
     units="px"
     width="1040px" />
  <defs
     id="defs2">
    <inkscape:path-effect
       effect="bspline"
       id="path-effect2406"
       is_visible="true"
       lpeversion="1"
       weight="50"
       steps="8"
       helper_size="24"
       apply_no_weight="true"
       apply_with_weight="true"
       only_selected="false" />
    <inkscape:path-effect
       effect="bspline"
       id="path-effect1120"
       is_visible="true"
       lpeversion="1"
       weight="33.333333"
       steps="2"
       helper_size="0"
       apply_no_weight="true"
       apply_with_weight="true"
       only_selected="true" />
    <inkscape:path-effect
       effect="bspline"
       id="path-effect832"
       is_visible="true"
       lpeversion="1"
       weight="33.333333"
       steps="2"
       helper_size="0"
       apply_no_weight="true"
       apply_with_weight="true"
       only_selected="true" />
    <inkscape:path-effect
       effect="bspline"
       id="path-effect5622"
       is_visible="true"
       lpeversion="1"
       weight="20"
       steps="2"
       helper_size="0"
       apply_no_weight="true"
       apply_with_weight="true"
       only_selected="true" />
    <inkscape:path-effect
       effect="bspline"
       id="path-effect5048"
       is_visible="true"
       lpeversion="1"
       weight="33.333333"
       steps="2"
       helper_size="0"
       apply_no_weight="true"
       apply_with_weight="true"
       only_selected="false" />
    <inkscape:path-effect
       effect="bspline"
       id="path-effect4976"
       is_visible="true"
       lpeversion="1"
       weight="33.333333"
       steps="2"
       helper_size="0"
       apply_no_weight="true"
       apply_with_weight="true"
       only_selected="true" />
  </defs>
  <g
     inkscape:label="Layer 1"
     inkscape:groupmode="layer"
     id="layer1"
     transform="translate(294.66469,193.7837)">
    <rect
       style="fill:#ea303c;fill-opacity:1;stroke:none;stroke-width:24;stroke-linecap:round;stroke-linejoin:round;stroke-miterlimit:4;stroke-dasharray:none;stroke-opacity:1;paint-order:normal"
       id="rect16207"
       width="283.10419"
       height="46.30209"
       x="-294.66473"
       y="-193.78371" />
    <path
       id="path14275"
       style="fill:#f6f6f6;fill-opacity:0.990135;stroke-width:20.8832;stroke-linecap:round;stroke-linejoin:round;paint-order:stroke fill markers"
       d="m -224.86756,-179.78576 c -5.31854,1e-5 -9.63006,4.31153 -9.63007,9.63006 -0.44023,3.21008 -1.91031,6.25164 -4.01749,7.82458 -0.12809,0.0961 -0.26624,0.20549 -0.35075,0.35089 -0.0851,0.14742 -0.12994,0.31464 -0.12995,0.48487 1e-5,0.17023 0.0448,0.33745 0.12995,0.48486 0.0851,0.1474 0.20751,0.26981 0.35492,0.35492 0.14741,0.0851 0.31464,0.12994 0.48486,0.12995 h 13.15853 c 5.31854,-1e-5 9.63004,-4.31154 9.63007,-9.63007 -3e-5,-5.31853 -4.31153,-9.63005 -9.63007,-9.63006 z m 4.07643,4.89235 a 1.9395297,1.9395297 0 0 1 1.93946,1.93947 1.9395297,1.9395297 0 0 1 -1.93946,1.9396 1.9395297,1.9395297 0 0 1 -1.93961,-1.9396 1.9395297,1.9395297 0 0 1 1.93961,-1.93947 z" />
    <path
       id="path14277"
       style="fill:#ffffff;fill-opacity:0.990135;stroke:none;stroke-width:115.717;stroke-linecap:round;stroke-linejoin:round;stroke-miterlimit:4;stroke-dasharray:none;stroke-opacity:1;paint-order:normal"
       d="m -227.54062,-187.96125 c -0.47635,0.0206 -1.00225,0.12132 -1.52256,0.24563 -1.04061,0.2486 -2.05866,0.59158 -2.45554,1.23241 -0.39688,0.64083 -0.17262,1.5794 -0.80233,2.59104 -0.6297,1.01164 -2.1134,2.0965 -3.2637,2.38799 -1.1503,0.2915 -1.96727,-0.21033 -2.93582,0.45034 -0.96856,0.66067 -2.08857,2.48391 -2.24002,3.64648 -0.15145,1.16258 0.66554,1.6644 0.92549,2.82224 0.25996,1.15785 -0.037,2.97172 -0.65476,3.99072 -0.61775,1.01901 -1.5563,1.24319 -1.94849,1.88691 -0.39219,0.64371 -0.23792,1.70685 0.004,2.73139 0.24179,1.02454 0.57101,2.01051 0.77043,2.43335 0.12631,0.26782 0.20273,0.29621 0.29583,0.22219 0.0145,-0.0265 0.0275,-0.0536 0.0426,-0.0798 a 2.8406923,2.8406923 0 0 1 0.004,-0.007 c 0.4492,-0.77283 0.92993,-1.06668 1.1019,-1.19567 a 2.8406923,2.8406923 0 0 1 0.005,-0.004 c 1.18384,-0.8837 2.49093,-3.23158 2.87924,-5.77776 0.12368,-6.74907 5.6906,-12.2412 12.46757,-12.24121 6.8536,1e-5 12.47045,5.61687 12.47048,12.47047 -3e-5,6.85359 -5.61688,12.47046 -12.47048,12.47047 h -10.01161 c -1.74635,0.19674 -1.80046,0.72138 -1.03201,1.4191 0.80611,0.73189 2.62946,1.85203 3.79198,2.00354 1.16251,0.15151 1.66437,-0.66563 2.82224,-0.92563 1.15786,-0.26 2.97159,0.0371 3.99058,0.6549 1.01898,0.61782 1.24321,1.55638 1.8869,1.94848 0.64369,0.39211 1.70677,0.23782 2.74735,-0.0108 1.04057,-0.24863 2.05875,-0.59168 2.45567,-1.23242 0.39692,-0.64073 0.17266,-1.57914 0.80234,-2.5909 0.62969,-1.01175 2.11321,-2.09665 3.26355,-2.38813 1.15035,-0.29148 1.96737,0.21036 2.93584,-0.45033 0.96846,-0.6607 2.08846,-2.48394 2.24,-3.64649 0.15156,-1.16255 -0.66534,-1.66442 -0.92534,-2.82224 -0.26001,-1.15782 0.0369,-2.97155 0.65476,-3.99058 0.61781,-1.01903 1.55635,-1.24324 1.94848,-1.8869 0.39213,-0.64367 0.23792,-1.70689 -0.0107,-2.74749 -0.24859,-1.0406 -0.59164,-2.0586 -1.23241,-2.45554 -0.64077,-0.39693 -1.57922,-0.17283 -2.59091,-0.80247 -1.01168,-0.62963 -2.09661,-2.11321 -2.38813,-3.26355 -0.29152,-1.15035 0.21044,-1.96734 -0.4502,-2.93583 -0.66063,-0.9685 -2.48384,-2.08853 -3.64648,-2.24001 -1.16262,-0.15149 -1.66458,0.66565 -2.82238,0.92562 -1.15779,0.25998 -2.97156,-0.0371 -3.99057,-0.6549 -1.01903,-0.61777 -1.24333,-1.55628 -1.88705,-1.94848 -0.32186,-0.1961 -0.74857,-0.25569 -1.22492,-0.23508 z" />
    <text
       xml:space="preserve"
       style="font-style:normal;font-variant:normal;font-weight:bold;font-stretch:normal;font-size:5.64444px;line-height:1.25;font-family:Ubuntu;-inkscape-font-specification:'Ubuntu, Bold';font-variant-ligatures:normal;font-variant-caps:normal;font-variant-numeric:normal;font-variant-east-asian:normal;letter-spacing:0px;word-spacing:0px;fill:#ffffff;fill-opacity:1;stroke:none;stroke-width:0.264583"
       x="-128.03667"
       y="-157.36101"
       id="text3235"><tspan
         sodipodi:role="line"
         id="tspan3233"
         style="font-style:normal;font-variant:normal;font-weight:bold;font-stretch:normal;font-size:5.64444px;font-family:Ubuntu;-inkscape-font-specification:'Ubuntu, Bold';font-variant-ligatures:normal;font-variant-caps:normal;font-variant-numeric:normal;font-variant-east-asian:normal;fill:#ffffff;fill-opacity:1;stroke-width:0.264583"
         x="-128.03667"
         y="-157.36101">@PlanetMinecraft</tspan></text>
    <text
       xml:space="preserve"
       style="font-style:normal;font-variant:normal;font-weight:normal;font-stretch:normal;font-size:25.6379px;line-height:1.25;font-family:'Lilita One';-inkscape-font-specification:'Lilita One, Normal';font-variant-ligatures:normal;font-variant-caps:normal;font-variant-numeric:normal;font-variant-east-asian:normal;letter-spacing:0px;word-spacing:0px;fill:#ffffff;fill-opacity:1;stroke:none;stroke-width:0.264584"
       x="-196.21317"
       y="-164.11411"
       id="text1341"><tspan
         sodipodi:role="line"
         id="tspan1339"
         style="font-style:normal;font-variant:normal;font-weight:normal;font-stretch:normal;font-size:25.6379px;font-family:'Lilita One';-inkscape-font-specification:'Lilita One, Normal';font-variant-ligatures:normal;font-variant-caps:normal;font-variant-numeric:normal;font-variant-east-asian:normal;fill:#ffffff;fill-opacity:1;stroke-width:0.264584"
         x="-196.21317"
         y="-164.11411">BubbleFish</tspan></text>
  </g>
</svg>
