<?xml version="1.0" encoding="UTF-8" standalone="no"?>
<!-- Created with Inkscape (http://www.inkscape.org/) -->

<svg
   width="512"
   height="512"
   viewBox="0 0 135.46667 135.46667"
   version="1.1"
   id="svg5"
   inkscape:version="1.1.2 (0a00cf5, 2022-02-04)"
   sodipodi:docname="youtube.svg"
   inkscape:export-filename="/home/michael/Documents/bubblefish-branding/youtube.png"
   inkscape:export-xdpi="96"
   inkscape:export-ydpi="96"
   xmlns:inkscape="http://www.inkscape.org/namespaces/inkscape"
   xmlns:sodipodi="http://sodipodi.sourceforge.net/DTD/sodipodi-0.dtd"
   xmlns="http://www.w3.org/2000/svg"
   xmlns:svg="http://www.w3.org/2000/svg">
  <sodipodi:namedview
     id="namedview7"
     pagecolor="#505050"
     bordercolor="#ffffff"
     borderopacity="1"
     inkscape:pageshadow="0"
     inkscape:pageopacity="0"
     inkscape:pagecheckerboard="1"
     inkscape:document-units="mm"
     showgrid="false"
     inkscape:snap-bbox="true"
     inkscape:bbox-paths="true"
     inkscape:bbox-nodes="true"
     inkscape:snap-bbox-edge-midpoints="true"
     inkscape:snap-bbox-midpoints="true"
     inkscape:object-paths="true"
     inkscape:snap-intersection-paths="true"
     inkscape:snap-smooth-nodes="true"
     inkscape:snap-midpoints="true"
     inkscape:snap-object-midpoints="true"
     inkscape:snap-center="true"
     inkscape:snap-text-baseline="true"
     inkscape:snap-page="true"
     inkscape:snap-global="true"
     inkscape:zoom="0.78222655"
     inkscape:cx="239.70038"
     inkscape:cy="206.46193"
     inkscape:window-width="1366"
     inkscape:window-height="706"
     inkscape:window-x="0"
     inkscape:window-y="32"
     inkscape:window-maximized="1"
     inkscape:current-layer="layer1"
     units="px"
     width="512px" />
  <defs
     id="defs2">
    <inkscape:path-effect
       effect="bspline"
       id="path-effect1120"
       is_visible="true"
       lpeversion="1"
       weight="33.333333"
       steps="2"
       helper_size="0"
       apply_no_weight="true"
       apply_with_weight="true"
       only_selected="true" />
    <inkscape:path-effect
       effect="bspline"
       id="path-effect832"
       is_visible="true"
       lpeversion="1"
       weight="33.333333"
       steps="2"
       helper_size="0"
       apply_no_weight="true"
       apply_with_weight="true"
       only_selected="true" />
    <inkscape:path-effect
       effect="bspline"
       id="path-effect5622"
       is_visible="true"
       lpeversion="1"
       weight="20"
       steps="2"
       helper_size="0"
       apply_no_weight="true"
       apply_with_weight="true"
       only_selected="true" />
    <inkscape:path-effect
       effect="bspline"
       id="path-effect5048"
       is_visible="true"
       lpeversion="1"
       weight="33.333333"
       steps="2"
       helper_size="0"
       apply_no_weight="true"
       apply_with_weight="true"
       only_selected="false" />
    <inkscape:path-effect
       effect="bspline"
       id="path-effect4976"
       is_visible="true"
       lpeversion="1"
       weight="33.333333"
       steps="2"
       helper_size="0"
       apply_no_weight="true"
       apply_with_weight="true"
       only_selected="true" />
  </defs>
  <g
     inkscape:label="Layer 1"
     inkscape:groupmode="layer"
     id="layer1"
     transform="translate(294.66469,193.7837)">
    <rect
       style="fill:#ea303c;fill-opacity:1;stroke:none;stroke-width:24;stroke-linecap:round;stroke-linejoin:round;stroke-miterlimit:4;stroke-dasharray:none;stroke-opacity:1;paint-order:normal"
       id="rect16207"
       width="135.46666"
       height="135.46666"
       x="-294.6647"
       y="-193.78371" />
    <path
       id="path14275"
       style="opacity:1;fill:#f6f6f6;fill-opacity:0.990135;stroke-width:20.8832;stroke-linecap:round;stroke-linejoin:round;paint-order:stroke fill markers"
       d="m -226.93033,-154.22669 c -15.56051,3e-5 -28.17478,12.6143 -28.17482,28.17481 -1.288,9.39178 -5.58901,18.29049 -11.75402,22.89247 -0.37475,0.28108 -0.77894,0.60121 -1.02619,1.02661 -0.24905,0.43129 -0.38019,0.92055 -0.38022,1.41858 3e-5,0.49804 0.13117,0.987288 0.38022,1.418576 0.24899,0.43125 0.60711,0.789372 1.03837,1.038372 0.43128,0.249048 0.92055,0.38018 1.41858,0.380211 h 38.49808 c 15.56052,-4e-5 28.17476,-12.614319 28.17483,-28.174819 -7e-5,-15.56052 -12.61431,-28.17478 -28.17483,-28.17481 z m 11.92647,14.31362 a 5.6745087,5.6745087 0 0 1 5.67432,5.67432 5.6745087,5.6745087 0 0 1 -5.67432,5.67473 5.6745087,5.6745087 0 0 1 -5.67473,-5.67473 5.6745087,5.6745087 0 0 1 5.67473,-5.67432 z" />
    <path
       id="path14277"
       style="opacity:1;fill:#ffffff;fill-opacity:0.990135;stroke:none;stroke-width:115.717;stroke-linecap:round;stroke-linejoin:round;stroke-miterlimit:4;stroke-dasharray:none;stroke-opacity:1;paint-order:normal"
       d="m -234.75092,-178.14582 c -1.39368,0.0603 -2.93231,0.35495 -4.45458,0.71862 -3.04453,0.72733 -6.02306,1.73081 -7.18421,3.60569 -1.16117,1.87488 -0.50503,4.62087 -2.34739,7.58064 -1.84233,2.95978 -6.1832,6.13377 -9.54865,6.98659 -3.36544,0.85282 -5.75566,-0.61537 -8.58938,1.31755 -2.83373,1.93292 -6.11054,7.26721 -6.55364,10.66857 -0.4431,3.40136 1.94717,4.86954 2.70772,8.25707 0.76055,3.38753 -0.10828,8.69438 -1.91565,11.6757 -1.80735,2.98131 -4.55328,3.63721 -5.70071,5.52054 -1.14745,1.88332 -0.69609,4.99376 0.0114,7.99128 0.7074,2.99751 1.67062,5.88216 2.25406,7.11928 0.36954,0.78356 0.59312,0.86662 0.86552,0.65005 0.0423,-0.0774 0.0804,-0.15682 0.12456,-0.23332 a 8.3110525,8.3110525 0 0 1 0.0122,-0.0215 c 1.31423,-2.26107 2.72072,-3.12079 3.22386,-3.49817 a 8.3110525,8.3110525 0 0 1 0.015,-0.0109 c 3.46358,-2.58546 7.28774,-9.45469 8.42382,-16.90407 0.36186,-19.74585 16.64909,-35.81425 36.47656,-35.81429 20.05165,5e-5 36.48497,16.43338 36.48503,36.48504 -6e-5,20.05164 -16.43338,36.484985 -36.48503,36.485032 h -29.29112 c -5.10931,0.575588 -5.26764,2.110547 -3.01935,4.151862 2.35844,2.141313 7.69305,5.41853 11.09424,5.861793 3.40116,0.443264 4.86946,-1.947427 8.25706,-2.708122 3.38758,-0.760703 8.69403,0.10851 11.6753,1.916057 2.98125,1.807548 3.63728,4.55351 5.52052,5.700697 1.88325,1.147188 4.99354,0.695774 8.03796,-0.03164 3.04441,-0.727418 6.02332,-1.731099 7.1846,-3.605697 1.16127,-1.87459 0.50515,-4.62012 2.34742,-7.580233 1.84227,-2.960107 6.18264,-6.134216 9.54821,-6.986995 3.3656,-0.852777 5.75597,0.615462 8.58941,-1.317548 2.83345,-1.933009 6.11025,-7.267296 6.55362,-10.668566 0.4434,-3.40129 -1.9466,-4.86963 -2.7073,-8.25708 -0.76069,-3.38744 0.10812,-8.69391 1.91565,-11.67529 1.80754,-2.98139 4.55343,-3.63735 5.70069,-5.52054 1.14726,-1.88318 0.69609,-4.99385 -0.0312,-8.03835 -0.72731,-3.0445 -1.73099,-6.02288 -3.60569,-7.1842 -1.87471,-1.16133 -4.62036,-0.50566 -7.58025,-2.3478 -2.9599,-1.84214 -6.13409,-6.18267 -6.98699,-9.54823 -0.8529,-3.36558 0.61567,-5.75587 -1.31715,-8.5894 -1.93283,-2.83354 -7.26702,-6.11042 -10.66856,-6.55363 -3.40151,-0.44322 -4.87008,1.94751 -8.25748,2.70812 -3.38738,0.76062 -8.69393,-0.10864 -11.67528,-1.91606 -2.98137,-1.80741 -3.63762,-4.55323 -5.52095,-5.70069 -0.94168,-0.57373 -2.19012,-0.74808 -3.58378,-0.68778 z" />
  </g>
</svg>
